<?xml version="1.0" encoding="UTF-8" standalone="no"?>
<!-- Created with Inkscape (http://www.inkscape.org/) -->
<svg
   xmlns:dc="http://purl.org/dc/elements/1.1/"
   xmlns:cc="http://creativecommons.org/ns#"
   xmlns:rdf="http://www.w3.org/1999/02/22-rdf-syntax-ns#"
   xmlns:svg="http://www.w3.org/2000/svg"
   xmlns="http://www.w3.org/2000/svg"
   xmlns:xlink="http://www.w3.org/1999/xlink"
   xmlns:sodipodi="http://sodipodi.sourceforge.net/DTD/sodipodi-0.dtd"
   xmlns:inkscape="http://www.inkscape.org/namespaces/inkscape"
   width="744.09448819"
   height="1052.3622047"
   id="svg2"
   sodipodi:version="0.32"
   inkscape:version="0.46"
   sodipodi:docname="burn-cd-icon.svg"
   inkscape:output_extension="org.inkscape.output.svg.inkscape">
  <defs
     id="defs4">
    <linearGradient
       id="linearGradient3798">
      <stop
         id="stop3800"
         offset="0"
         style="stop-color:#ffde00;stop-opacity:1;" />
      <stop
         style="stop-color:#ffde00;stop-opacity:0.49803922;"
         offset="0.984375"
         id="stop3802" />
      <stop
         id="stop3804"
         offset="0.984375"
         style="stop-color:#ffde00;stop-opacity:0.24705882;" />
      <stop
         style="stop-color:#ffde00;stop-opacity:0.12156863;"
         offset="0.984375"
         id="stop3806" />
      <stop
         id="stop3808"
         offset="0.984375"
         style="stop-color:#ffde00;stop-opacity:0.05882353;" />
      <stop
         style="stop-color:#ffde00;stop-opacity:0.02745098;"
         offset="0.984375"
         id="stop3810" />
      <stop
         id="stop3812"
         offset="0.984375"
         style="stop-color:#ffde00;stop-opacity:0.01176471;" />
      <stop
         style="stop-color:#ffde00;stop-opacity:0.00392157;"
         offset="0.9921875"
         id="stop3814" />
      <stop
         id="stop3816"
         offset="0.99609375"
         style="stop-color:#ffde00;stop-opacity:0;" />
      <stop
         style="stop-color:#ffde00;stop-opacity:0;"
         offset="0.99804688"
         id="stop3818" />
      <stop
         id="stop3820"
         offset="0.99902344"
         style="stop-color:#ffde00;stop-opacity:0;" />
      <stop
         style="stop-color:#ffde00;stop-opacity:0;"
         offset="0.99951172"
         id="stop3822" />
      <stop
         id="stop3824"
         offset="0.99975586"
         style="stop-color:#ffde00;stop-opacity:0;" />
      <stop
         style="stop-color:#ffde00;stop-opacity:0;"
         offset="0.99987793"
         id="stop3826" />
      <stop
         id="stop3828"
         offset="0.99993896"
         style="stop-color:#ffde00;stop-opacity:0;" />
      <stop
         style="stop-color:#ffde00;stop-opacity:0;"
         offset="0.99996948"
         id="stop3830" />
      <stop
         id="stop3832"
         offset="0.99998474"
         style="stop-color:#ffde00;stop-opacity:0;" />
      <stop
         style="stop-color:#ffde00;stop-opacity:0;"
         offset="0.99999237"
         id="stop3834" />
      <stop
         id="stop3836"
         offset="0.99999619"
         style="stop-color:#ffde00;stop-opacity:0;" />
      <stop
         style="stop-color:#ffde00;stop-opacity:0;"
         offset="0.99999809"
         id="stop3838" />
      <stop
         id="stop3840"
         offset="0.99999905"
         style="stop-color:#ffde00;stop-opacity:0;" />
      <stop
         style="stop-color:#ffde00;stop-opacity:0;"
         offset="0.99999952"
         id="stop3842" />
      <stop
         id="stop3844"
         offset="0.99999976"
         style="stop-color:#ffde00;stop-opacity:0;" />
      <stop
         style="stop-color:#ffde00;stop-opacity:0;"
         offset="0.99999988"
         id="stop3846" />
      <stop
         id="stop3848"
         offset="0.99999994"
         style="stop-color:#ffde00;stop-opacity:0;" />
      <stop
         style="stop-color:#ffde00;stop-opacity:0;"
         offset="1"
         id="stop3850" />
      <stop
         id="stop3852"
         offset="1"
         style="stop-color:#ffde00;stop-opacity:0;" />
      <stop
         style="stop-color:#ffde00;stop-opacity:0;"
         offset="1"
         id="stop3854" />
      <stop
         id="stop3856"
         offset="1"
         style="stop-color:#ffde00;stop-opacity:0;" />
      <stop
         style="stop-color:#ffde00;stop-opacity:0;"
         offset="1"
         id="stop3858" />
      <stop
         id="stop3860"
         offset="1"
         style="stop-color:#ffde00;stop-opacity:0;" />
    </linearGradient>
    <linearGradient
       id="linearGradient3730">
      <stop
         style="stop-color:#000000;stop-opacity:1;"
         offset="0"
         id="stop3732" />
      <stop
         style="stop-color:#000000;stop-opacity:0;"
         offset="1"
         id="stop3734" />
    </linearGradient>
    <linearGradient
       id="linearGradient3678">
      <stop
         style="stop-color:#ff1000;stop-opacity:1;"
         offset="0"
         id="stop3680" />
      <stop
         id="stop3740"
         offset="0.5"
         style="stop-color:#ffde00;stop-opacity:0.49803922;" />
      <stop
         style="stop-color:#ffde00;stop-opacity:0.24705882;"
         offset="0.75"
         id="stop3742" />
      <stop
         id="stop3744"
         offset="0.875"
         style="stop-color:#ffde00;stop-opacity:0.12156863;" />
      <stop
         style="stop-color:#ffde00;stop-opacity:0.05882353;"
         offset="0.9375"
         id="stop3746" />
      <stop
         id="stop3748"
         offset="0.96875"
         style="stop-color:#ffde00;stop-opacity:0.02745098;" />
      <stop
         style="stop-color:#ffde00;stop-opacity:0.01176471;"
         offset="0.984375"
         id="stop3750" />
      <stop
         id="stop3752"
         offset="0.9921875"
         style="stop-color:#ffde00;stop-opacity:0.00392157;" />
      <stop
         style="stop-color:#ffde00;stop-opacity:0;"
         offset="0.99609375"
         id="stop3754" />
      <stop
         id="stop3756"
         offset="0.99804688"
         style="stop-color:#ffde00;stop-opacity:0;" />
      <stop
         style="stop-color:#ffde00;stop-opacity:0;"
         offset="0.99902344"
         id="stop3758" />
      <stop
         id="stop3760"
         offset="0.99951172"
         style="stop-color:#ffde00;stop-opacity:0;" />
      <stop
         style="stop-color:#ffde00;stop-opacity:0;"
         offset="0.99975586"
         id="stop3762" />
      <stop
         id="stop3764"
         offset="0.99987793"
         style="stop-color:#ffde00;stop-opacity:0;" />
      <stop
         style="stop-color:#ffde00;stop-opacity:0;"
         offset="0.99993896"
         id="stop3766" />
      <stop
         id="stop3768"
         offset="0.99996948"
         style="stop-color:#ffde00;stop-opacity:0;" />
      <stop
         style="stop-color:#ffde00;stop-opacity:0;"
         offset="0.99998474"
         id="stop3770" />
      <stop
         id="stop3772"
         offset="0.99999237"
         style="stop-color:#ffde00;stop-opacity:0;" />
      <stop
         style="stop-color:#ffde00;stop-opacity:0;"
         offset="0.99999619"
         id="stop3774" />
      <stop
         id="stop3776"
         offset="0.99999809"
         style="stop-color:#ffde00;stop-opacity:0;" />
      <stop
         style="stop-color:#ffde00;stop-opacity:0;"
         offset="0.99999905"
         id="stop3778" />
      <stop
         id="stop3780"
         offset="0.99999952"
         style="stop-color:#ffde00;stop-opacity:0;" />
      <stop
         style="stop-color:#ffde00;stop-opacity:0;"
         offset="0.99999976"
         id="stop3782" />
      <stop
         id="stop3784"
         offset="0.99999988"
         style="stop-color:#ffde00;stop-opacity:0;" />
      <stop
         style="stop-color:#ffde00;stop-opacity:0;"
         offset="0.99999994"
         id="stop3786" />
      <stop
         id="stop3788"
         offset="1"
         style="stop-color:#ffde00;stop-opacity:0;" />
      <stop
         style="stop-color:#ffde00;stop-opacity:0;"
         offset="1"
         id="stop3790" />
      <stop
         id="stop3792"
         offset="1"
         style="stop-color:#ffde00;stop-opacity:0;" />
      <stop
         style="stop-color:#ffde00;stop-opacity:0;"
         offset="1"
         id="stop3794" />
      <stop
         id="stop3796"
         offset="1"
         style="stop-color:#ffde00;stop-opacity:0;" />
      <stop
         style="stop-color:#ffde00;stop-opacity:0;"
         offset="1"
         id="stop3682" />
    </linearGradient>
    <linearGradient
       inkscape:collect="always"
       id="linearGradient3670">
      <stop
         style="stop-color:#ff1700;stop-opacity:1;"
         offset="0"
         id="stop3672" />
      <stop
         style="stop-color:#ff1700;stop-opacity:0;"
         offset="1"
         id="stop3674" />
    </linearGradient>
    <inkscape:perspective
       sodipodi:type="inkscape:persp3d"
       inkscape:vp_x="0 : 526.18109 : 1"
       inkscape:vp_y="0 : 1000 : 0"
       inkscape:vp_z="744.09448 : 526.18109 : 1"
       inkscape:persp3d-origin="372.04724 : 350.78739 : 1"
       id="perspective10" />
    <linearGradient
       inkscape:collect="always"
       xlink:href="#linearGradient3670"
       id="linearGradient3676"
       x1="576.13037"
       y1="1437.3713"
       x2="285.5274"
       y2="2060.2285"
       gradientUnits="userSpaceOnUse"
       gradientTransform="matrix(0.8259068,0,0,0.8259068,241.09095,629.85734)" />
    <linearGradient
       inkscape:collect="always"
       xlink:href="#linearGradient3678"
       id="linearGradient3684"
       x1="401.8447"
       y1="1958.7999"
       x2="711.2417"
       y2="1321.6571"
       gradientUnits="userSpaceOnUse"
       gradientTransform="matrix(0.8259068,0,0,0.8259068,241.09095,629.85734)" />
    <linearGradient
       inkscape:collect="always"
       xlink:href="#linearGradient3678"
       id="linearGradient3688"
       gradientUnits="userSpaceOnUse"
       gradientTransform="matrix(0.4744212,0,0,0.4744212,156.46918,966.54866)"
       x1="401.8447"
       y1="1958.7999"
       x2="711.2417"
       y2="1321.6571" />
    <linearGradient
       inkscape:collect="always"
       xlink:href="#linearGradient3670"
       id="linearGradient3690"
       gradientUnits="userSpaceOnUse"
       gradientTransform="matrix(0.4744212,0,0,0.4744212,156.46918,966.54866)"
       x1="576.13037"
       y1="1437.3713"
       x2="285.5274"
       y2="2060.2285" />
    <linearGradient
       inkscape:collect="always"
       xlink:href="#linearGradient3678"
       id="linearGradient3694"
       gradientUnits="userSpaceOnUse"
       gradientTransform="matrix(0.4744212,0,0,0.4744212,482.18346,1096.5486)"
       x1="401.8447"
       y1="1958.7999"
       x2="711.2417"
       y2="1321.6571" />
    <linearGradient
       inkscape:collect="always"
       xlink:href="#linearGradient3670"
       id="linearGradient3696"
       gradientUnits="userSpaceOnUse"
       gradientTransform="matrix(0.4744212,0,0,0.4744212,482.18346,1096.5486)"
       x1="576.13037"
       y1="1437.3713"
       x2="285.5274"
       y2="2060.2285" />
    <linearGradient
       inkscape:collect="always"
       xlink:href="#linearGradient3678"
       id="linearGradient3722"
       gradientUnits="userSpaceOnUse"
       gradientTransform="matrix(0.8259068,0,0,0.8259068,-1310.4164,294.03211)"
       x1="401.8447"
       y1="1958.7999"
       x2="711.2417"
       y2="1321.6571" />
    <linearGradient
       inkscape:collect="always"
       xlink:href="#linearGradient3670"
       id="linearGradient3724"
       gradientUnits="userSpaceOnUse"
       gradientTransform="matrix(0.8259068,0,0,0.8259068,-1310.4164,294.03211)"
       x1="576.13037"
       y1="1437.3713"
       x2="285.5274"
       y2="2060.2285" />
    <radialGradient
       inkscape:collect="always"
       xlink:href="#linearGradient3798"
       id="radialGradient3738"
       cx="-1513.2214"
       cy="1841.0021"
       fx="-1513.2214"
       fy="1841.0021"
       r="322.30295"
       gradientTransform="matrix(2.6767498,-0.3911484,0.2109164,1.4433731,2896.2019,-1109.8606)"
       gradientUnits="userSpaceOnUse" />
    <linearGradient
       inkscape:collect="always"
       xlink:href="#linearGradient3678"
       id="linearGradient3866"
       gradientUnits="userSpaceOnUse"
       gradientTransform="matrix(0.8259068,0,0,0.8259068,-736.46112,1108.4903)"
       x1="401.8447"
       y1="1958.7999"
       x2="711.2417"
       y2="1321.6571" />
    <linearGradient
       inkscape:collect="always"
       xlink:href="#linearGradient3670"
       id="linearGradient3868"
       gradientUnits="userSpaceOnUse"
       gradientTransform="matrix(0.8259068,0,0,0.8259068,-736.46112,1108.4903)"
       x1="576.13037"
       y1="1437.3713"
       x2="285.5274"
       y2="2060.2285" />
    <filter
       inkscape:collect="always"
       id="filter3918">
      <feGaussianBlur
         inkscape:collect="always"
         stdDeviation="21.828583"
         id="feGaussianBlur3920" />
    </filter>
  </defs>
  <sodipodi:namedview
     id="base"
     pagecolor="#ffffff"
     bordercolor="#666666"
     borderopacity="1.0"
     gridtolerance="10000"
     guidetolerance="10"
     objecttolerance="10"
     inkscape:pageopacity="0.0"
     inkscape:pageshadow="2"
     inkscape:zoom="0.49497475"
     inkscape:cx="-125.79492"
     inkscape:cy="-1087.3822"
     inkscape:document-units="px"
     inkscape:current-layer="layer1"
     showgrid="false"
     inkscape:window-width="1280"
     inkscape:window-height="934"
     inkscape:window-x="0"
     inkscape:window-y="29" />
  <metadata
     id="metadata7">
    <rdf:RDF>
      <cc:Work
         rdf:about="">
        <dc:format>image/svg+xml</dc:format>
        <dc:type
           rdf:resource="http://purl.org/dc/dcmitype/StillImage" />
      </cc:Work>
    </rdf:RDF>
  </metadata>
  <g
     inkscape:label="Layer 1"
     inkscape:groupmode="layer"
     id="layer1">
    <path
       sodipodi:type="spiral"
       style="fill:none;fill-rule:evenodd;stroke:#c00000;stroke-width:111.30000305;stroke-linecap:round;stroke-linejoin:miter;stroke-miterlimit:4;stroke-dasharray:none;stroke-opacity:1"
       id="path2385"
       sodipodi:cx="802.85712"
       sodipodi:cy="726.64789"
       sodipodi:expansion="1"
       sodipodi:revolution="2.21"
       sodipodi:radius="263.05893"
       sodipodi:argument="-13.733191"
       sodipodi:t0="0.13010882"
       d="M 830.31294,747.08356 C 826.22903,777.30471 789.62551,787.14682 764.6538,777.97497 C 721.83748,762.24898 709.49462,709.21548 727.65877,670.67692 C 753.82849,615.15308 824.78587,600.10035 876.59573,627.57828 C 944.93523,663.82289 962.72912,753.18069 925.79799,818.15415 C 879.63417,899.37081 771.66794,919.91727 693.58321,873.46002 C 599.45306,817.4564 576.14768,690.77243 632.17372,599.60633 C 697.97135,492.53981 843.43769,466.47133 947.66632,532.09323 C 1026.5464,581.75577 1070.3353,674.24834 1062.8571,766.64786"
       transform="matrix(0.631896,-0.383273,0.8743046,0.2770072,157.94955,618.15994)" />
    <path
       sodipodi:type="arc"
       style="opacity:1;fill:#000000;fill-opacity:1;fill-rule:evenodd;stroke:#c00000;stroke-width:224.69999695;stroke-linecap:round;stroke-linejoin:miter;stroke-miterlimit:4;stroke-dasharray:none;stroke-dashoffset:0;stroke-opacity:1"
       id="path3157"
       sodipodi:cx="572.14288"
       sodipodi:cy="755.93359"
       sodipodi:rx="179.28572"
       sodipodi:ry="179.28572"
       d="M 751.4286,755.93359 A 179.28572,179.28572 0 1 1 392.85716,755.93359 A 179.28572,179.28572 0 1 1 751.4286,755.93359 z"
       transform="translate(58.672958,1184.4293)"
       inkscape:export-filename="/home/pirate/project/itoaster/branches/graphic/path3159.png"
       inkscape:export-xdpi="17.175959"
       inkscape:export-ydpi="17.175959" />
    <path
       style="fill:url(#linearGradient3684);fill-opacity:1;fill-rule:evenodd;stroke:url(#linearGradient3676);stroke-width:10.90196896;stroke-linecap:round;stroke-linejoin:round;marker-start:none;stroke-miterlimit:4;stroke-dasharray:none;stroke-opacity:1"
       d="M 449.92737,2277.7224 C 449.92737,2277.7224 369.35998,2231.4119 362.61722,2166.8149 C 355.98492,2103.2762 357.62398,2036.4726 434.5891,1956.7986 C 501.76648,1886.3993 448.74751,1797.5166 448.74751,1797.5166 C 448.74751,1797.5166 524.5721,1850.861 546.67643,1920.2227 C 568.78077,1989.5847 480.02432,2024.4651 488.86297,2088.9437 C 497.38421,2151.107 559.65496,2172.7142 559.65496,2172.7142 C 522.30049,2112.1607 549.49506,2049.1363 602.13018,2003.9932 C 665.43401,1950.5355 625.7275,1922.5825 621.00804,1845.8913 C 615.75607,1760.5469 675.28192,1679.5299 753.15311,1651.2132 C 724.89483,1709.938 696.29402,1788.1133 740.17459,1842.3516 C 783.01134,1895.2995 839.19415,1958.1812 835.74379,2027.5905 C 832.34845,2095.8928 766.13166,2179.7933 766.13166,2179.7933 C 766.13166,2179.7933 798.46891,2172.6668 835.74379,2138.498 C 873.01868,2104.3294 898.8519,2054.6949 897.09684,1978.0362 C 895.28739,1899.0004 866.42033,1835.2723 848.72233,1802.2361 C 916.52552,1886.1875 1026.7018,2007.2818 1000.9251,2111.3611 C 974.45815,2218.2275 849.90219,2285.9814 762.59205,2284.8016 C 675.28192,2283.6217 507.74084,2281.2619 449.92737,2277.7224 z"
       id="path3159"
       sodipodi:nodetypes="czcczzccsczzczzczsc"
       inkscape:export-xdpi="17.175959"
       inkscape:export-ydpi="17.175959" />
    <path
       sodipodi:type="arc"
       style="opacity:1;fill:#000000;fill-opacity:1;fill-rule:evenodd;stroke:#c00000;stroke-width:224.69999695;stroke-linecap:round;stroke-linejoin:miter;stroke-miterlimit:4;stroke-dasharray:none;stroke-dashoffset:0;stroke-opacity:1"
       id="path3718"
       sodipodi:cx="572.14288"
       sodipodi:cy="755.93359"
       sodipodi:rx="179.28572"
       sodipodi:ry="179.28572"
       d="M 751.4286,755.93359 A 179.28572,179.28572 0 1 1 392.85716,755.93359 A 179.28572,179.28572 0 1 1 751.4286,755.93359 z"
       transform="translate(-1492.8344,848.60407)"
       inkscape:export-filename="/home/gumara/tmp/path3159.png"
       inkscape:export-xdpi="62.119999"
       inkscape:export-ydpi="62.119999" />
    <path
       style="fill:url(#linearGradient3722);fill-opacity:1;fill-rule:evenodd;stroke:url(#linearGradient3724);stroke-width:10.90196896;stroke-linecap:round;stroke-linejoin:round;marker-start:none;stroke-miterlimit:4;stroke-dasharray:none;stroke-opacity:1"
       d="M -1101.58,1941.8972 C -1101.58,1941.8972 -1182.1474,1895.5867 -1188.8901,1830.9897 C -1195.5224,1767.451 -1193.8834,1700.6474 -1116.9182,1620.9734 C -1049.7409,1550.5741 -1102.7598,1461.6914 -1102.7598,1461.6914 C -1102.7598,1461.6914 -1026.9352,1515.0358 -1004.8309,1584.3975 C -982.72657,1653.7595 -1071.483,1688.6399 -1062.6444,1753.1185 C -1054.1231,1815.2818 -991.85238,1836.889 -991.85238,1836.889 C -1029.2069,1776.3355 -1002.0123,1713.3111 -949.37716,1668.168 C -886.07333,1614.7103 -925.77984,1586.7573 -930.4993,1510.0661 C -935.75127,1424.7217 -876.22542,1343.7047 -798.35423,1315.388 C -826.61251,1374.1128 -855.21332,1452.2881 -811.33275,1506.5264 C -768.496,1559.4743 -712.31319,1622.356 -715.76355,1691.7653 C -719.15889,1760.0676 -785.37568,1843.9681 -785.37568,1843.9681 C -785.37568,1843.9681 -753.03843,1836.8416 -715.76355,1802.6728 C -678.48866,1768.5042 -652.65544,1718.8697 -654.4105,1642.211 C -656.21995,1563.1752 -685.08701,1499.4471 -702.78501,1466.4109 C -634.98182,1550.3623 -524.80549,1671.4566 -550.5822,1775.5359 C -577.04919,1882.4023 -701.60515,1950.1562 -788.91529,1948.9764 C -876.22542,1947.7965 -1043.7665,1945.4367 -1101.58,1941.8972 z"
       id="path3720"
       sodipodi:nodetypes="czcczzccsczzczzczsc"
       inkscape:export-xdpi="62.119999"
       inkscape:export-ydpi="62.119999" />
    <path
       style="fill:url(#radialGradient3738);fill-opacity:1;fill-rule:evenodd;stroke:none;stroke-width:10.90196895999999960;stroke-linecap:round;stroke-linejoin:round;marker-start:none;stroke-miterlimit:4;stroke-dasharray:none;stroke-opacity:1"
       d="M -1101.58,1941.8972 C -1101.58,1941.8972 -1182.1474,1895.5867 -1188.8901,1830.9897 C -1195.5224,1767.451 -1193.8834,1700.6474 -1116.9182,1620.9734 C -1049.7409,1550.5741 -1102.7598,1461.6914 -1102.7598,1461.6914 C -1102.7598,1461.6914 -1026.9352,1515.0358 -1004.8309,1584.3975 C -982.72657,1653.7595 -1071.483,1688.6399 -1062.6444,1753.1185 C -1054.1231,1815.2818 -991.85238,1836.889 -991.85238,1836.889 C -1029.2069,1776.3355 -1002.0123,1713.3111 -949.37716,1668.168 C -886.07333,1614.7103 -925.77984,1586.7573 -930.4993,1510.0661 C -935.75127,1424.7217 -876.22542,1343.7047 -798.35423,1315.388 C -826.61251,1374.1128 -855.21332,1452.2881 -811.33275,1506.5264 C -768.496,1559.4743 -712.31319,1622.356 -715.76355,1691.7653 C -719.15889,1760.0676 -785.37568,1843.9681 -785.37568,1843.9681 C -785.37568,1843.9681 -753.03843,1836.8416 -715.76355,1802.6728 C -678.48866,1768.5042 -652.65544,1718.8697 -654.4105,1642.211 C -656.21995,1563.1752 -685.08701,1499.4471 -702.78501,1466.4109 C -634.98182,1550.3623 -524.80549,1671.4566 -550.5822,1775.5359 C -577.04919,1882.4023 -701.60515,1950.1562 -788.91529,1948.9764 C -876.22542,1947.7965 -1043.7665,1945.4367 -1101.58,1941.8972 z"
       id="path3726"
       sodipodi:nodetypes="czcczzccsczzczzczsc"
       inkscape:export-xdpi="62.119999"
       inkscape:export-ydpi="62.119999" />
    <path
       sodipodi:type="arc"
       style="opacity:1;fill:#000000;fill-opacity:1;fill-rule:evenodd;stroke:#c00000;stroke-width:224.69999695;stroke-linecap:round;stroke-linejoin:miter;stroke-miterlimit:4;stroke-dasharray:none;stroke-dashoffset:0;stroke-opacity:1"
       id="path3862"
       sodipodi:cx="572.14288"
       sodipodi:cy="755.93359"
       sodipodi:rx="179.28572"
       sodipodi:ry="179.28572"
       d="M 751.4286,755.93359 A 179.28572,179.28572 0 1 1 392.85716,755.93359 A 179.28572,179.28572 0 1 1 751.4286,755.93359 z"
       transform="translate(-918.87911,1663.0622)"
       inkscape:export-filename="/home/gumara/tmp/path3159.png"
       inkscape:export-xdpi="62.119999"
       inkscape:export-ydpi="62.119999" />
    <path
       style="fill:url(#linearGradient3866);fill-opacity:1;fill-rule:evenodd;stroke:url(#linearGradient3868);stroke-width:10.90196895999999960;stroke-linecap:round;stroke-linejoin:round;marker-start:none;stroke-miterlimit:4;stroke-dasharray:none;stroke-opacity:1;filter:url(#filter3918)"
       d="M -527.6247,2756.3553 C -527.6247,2756.3553 -608.19209,2710.0448 -614.93485,2645.4478 C -621.56716,2581.9091 -619.92809,2515.1055 -542.96297,2435.4315 C -475.78559,2365.0322 -528.80456,2276.1495 -528.80456,2276.1495 C -528.80456,2276.1495 -452.97997,2329.4939 -430.87564,2398.8556 C -408.7713,2468.2176 -497.52775,2503.098 -488.6891,2567.5766 C -480.16786,2629.7399 -417.89711,2651.3471 -417.89711,2651.3471 C -455.25158,2590.7936 -428.05701,2527.7692 -375.42189,2482.6261 C -312.11806,2429.1684 -351.82457,2401.2154 -356.54403,2324.5242 C -361.796,2239.1798 -302.27015,2158.1628 -224.39896,2129.8461 C -252.65724,2188.5709 -281.25805,2266.7462 -237.37748,2320.9845 C -194.54073,2373.9324 -138.35792,2436.8141 -141.80828,2506.2234 C -145.20362,2574.5257 -211.42041,2658.4262 -211.42041,2658.4262 C -211.42041,2658.4262 -179.08316,2651.2997 -141.80828,2617.1309 C -104.53339,2582.9623 -78.700171,2533.3278 -80.455231,2456.6691 C -82.264681,2377.6333 -111.13174,2313.9052 -128.82974,2280.869 C -61.026551,2364.8204 49.149729,2485.9147 23.373029,2589.994 C -3.0939214,2696.8604 -127.64988,2764.6143 -214.96002,2763.4345 C -302.27015,2762.2546 -469.81123,2759.8948 -527.6247,2756.3553 z"
       id="path3864"
       sodipodi:nodetypes="czcczzccsczzczzczsc"
       inkscape:export-xdpi="62.119999"
       inkscape:export-ydpi="62.119999" />
    <path
       style="fill:url(#linearGradient3866);fill-opacity:1;fill-rule:evenodd;stroke:url(#linearGradient3868);stroke-width:10.90196895999999960;stroke-linecap:round;stroke-linejoin:round;marker-start:none;stroke-miterlimit:4;stroke-dasharray:none;stroke-opacity:1"
       d="M -527.6247,2756.3553 C -527.6247,2756.3553 -608.19209,2710.0448 -614.93485,2645.4478 C -621.56716,2581.9091 -619.92809,2515.1055 -542.96297,2435.4315 C -475.78559,2365.0322 -528.80456,2276.1495 -528.80456,2276.1495 C -528.80456,2276.1495 -452.97997,2329.4939 -430.87564,2398.8556 C -408.7713,2468.2176 -497.52775,2503.098 -488.6891,2567.5766 C -480.16786,2629.7399 -417.89711,2651.3471 -417.89711,2651.3471 C -455.25158,2590.7936 -428.05701,2527.7692 -375.42189,2482.6261 C -312.11806,2429.1684 -351.82457,2401.2154 -356.54403,2324.5242 C -361.796,2239.1798 -302.27015,2158.1628 -224.39896,2129.8461 C -252.65724,2188.5709 -281.25805,2266.7462 -237.37748,2320.9845 C -194.54073,2373.9324 -138.35792,2436.8141 -141.80828,2506.2234 C -145.20362,2574.5257 -211.42041,2658.4262 -211.42041,2658.4262 C -211.42041,2658.4262 -179.08316,2651.2997 -141.80828,2617.1309 C -104.53339,2582.9623 -78.700171,2533.3278 -80.455231,2456.6691 C -82.264681,2377.6333 -111.13174,2313.9052 -128.82974,2280.869 C -61.026551,2364.8204 49.149729,2485.9147 23.373029,2589.994 C -3.0939214,2696.8604 -127.64988,2764.6143 -214.96002,2763.4345 C -302.27015,2762.2546 -469.81123,2759.8948 -527.6247,2756.3553 z"
       id="path3922"
       sodipodi:nodetypes="czcczzccsczzczzczsc"
       inkscape:export-xdpi="62.119999"
       inkscape:export-ydpi="62.119999" />
  </g>
</svg>
